<svg width="23" height="22" viewBox="0 0 23 22" fill="none" xmlns="http://www.w3.org/2000/svg">
<path d="M11.4999 0C10.3964 0 9.49995 0.896479 9.49995 1.99999C9.49995 2.92967 10.1406 3.70506 10.9999 3.92967V5.49997H6.51559C4.30076 5.49997 2.49999 7.30074 2.49999 9.51557V11.4999H0V17.4999H2.49999V21.9999H20.4999V17.4999H22.9999V11.4999H20.4999V9.51557C20.4999 7.30074 18.6991 5.49997 16.4843 5.49997H11.9999V3.92967C12.8613 3.70506 13.4999 2.92967 13.4999 1.99999C13.4999 0.896479 12.6034 0 11.4999 0ZM11.4999 0.999994C12.0507 0.999994 12.4999 1.44921 12.4999 1.99999C12.4999 2.55077 12.0507 2.99998 11.4999 2.99998C10.9492 2.99998 10.4999 2.55077 10.4999 1.99999C10.4999 1.44921 10.9492 0.999994 11.4999 0.999994ZM6.51559 6.49996H16.4843C18.1464 6.49996 19.4999 7.85347 19.4999 9.51557V20.9999H16.4999V16.9999H6.49996V20.9999H3.49998V9.51557C3.49998 7.85347 4.85349 6.49996 6.51559 6.49996ZM8.24995 9.49995C7.00973 9.49995 5.99997 10.5097 5.99997 11.7499C5.99997 12.9902 7.00973 13.9999 8.24995 13.9999C9.49018 13.9999 10.4999 12.9902 10.4999 11.7499C10.4999 10.5097 9.49018 9.49995 8.24995 9.49995ZM14.7499 9.49995C13.5097 9.49995 12.4999 10.5097 12.4999 11.7499C12.4999 12.9902 13.5097 13.9999 14.7499 13.9999C15.9901 13.9999 16.9999 12.9902 16.9999 11.7499C16.9999 10.5097 15.9901 9.49995 14.7499 9.49995ZM8.24995 10.4999C8.9394 10.4999 9.49995 11.0605 9.49995 11.7499C9.49995 12.4394 8.9394 12.9999 8.24995 12.9999C7.5605 12.9999 6.99996 12.4394 6.99996 11.7499C6.99996 11.0605 7.5605 10.4999 8.24995 10.4999ZM14.7499 10.4999C15.4394 10.4999 15.9999 11.0605 15.9999 11.7499C15.9999 12.4394 15.4394 12.9999 14.7499 12.9999C14.0605 12.9999 13.4999 12.4394 13.4999 11.7499C13.4999 11.0605 14.0605 10.4999 14.7499 10.4999ZM0.999994 12.4999H2.49999V16.4999H0.999994V12.4999ZM20.4999 12.4999H21.9999V16.4999H20.4999V12.4999ZM7.49996 17.9999H9.49995V20.9999H7.49996V17.9999ZM10.4999 17.9999H12.4999V20.9999H10.4999V17.9999ZM13.4999 17.9999H15.4999V20.9999H13.4999V17.9999Z" fill="#0070F0"/>
</svg>
