<svg width="15" height="15" viewBox="0 0 15 15" fill="none" xmlns="http://www.w3.org/2000/svg">
<path d="M7.50001 0C6.78033 0 6.19566 0.584665 6.19566 1.30435C6.19566 1.91067 6.61346 2.41636 7.17393 2.56284V3.58696H4.24933C2.80486 3.58696 1.63044 4.76139 1.63044 6.20585V7.50001H0V11.4131H1.63044V14.3479H13.3696V11.4131H15V7.50001H13.3696V6.20585C13.3696 4.76139 12.1952 3.58696 10.7507 3.58696H7.8261V2.56284C8.38784 2.41636 8.80436 1.91067 8.80436 1.30435C8.80436 0.584665 8.2197 0 7.50001 0ZM7.50001 0.652175C7.85922 0.652175 8.15219 0.945145 8.15219 1.30435C8.15219 1.66356 7.85922 1.95653 7.50001 1.95653C7.14081 1.95653 6.84784 1.66356 6.84784 1.30435C6.84784 0.945145 7.14081 0.652175 7.50001 0.652175ZM4.24933 4.23914H10.7507C11.8347 4.23914 12.7174 5.12187 12.7174 6.20585V13.6957H10.7609V11.087H4.23914V13.6957H2.28261V6.20585C2.28261 5.12187 3.16534 4.23914 4.24933 4.23914ZM5.38045 6.19566C4.5716 6.19566 3.91305 6.85421 3.91305 7.66306C3.91305 8.47191 4.5716 9.13045 5.38045 9.13045C6.1893 9.13045 6.84784 8.47191 6.84784 7.66306C6.84784 6.85421 6.1893 6.19566 5.38045 6.19566ZM9.61958 6.19566C8.81073 6.19566 8.15219 6.85421 8.15219 7.66306C8.15219 8.47191 8.81073 9.13045 9.61958 9.13045C10.4284 9.13045 11.087 8.47191 11.087 7.66306C11.087 6.85421 10.4284 6.19566 9.61958 6.19566ZM5.38045 6.84784C5.83009 6.84784 6.19566 7.21341 6.19566 7.66306C6.19566 8.1127 5.83009 8.47828 5.38045 8.47828C4.9308 8.47828 4.56523 8.1127 4.56523 7.66306C4.56523 7.21341 4.9308 6.84784 5.38045 6.84784ZM9.61958 6.84784C10.0692 6.84784 10.4348 7.21341 10.4348 7.66306C10.4348 8.1127 10.0692 8.47828 9.61958 8.47828C9.16994 8.47828 8.80436 8.1127 8.80436 7.66306C8.80436 7.21341 9.16994 6.84784 9.61958 6.84784ZM0.652175 8.15219H1.63044V10.7609H0.652175V8.15219ZM13.3696 8.15219H14.3479V10.7609H13.3696V8.15219ZM4.89131 11.7392H6.19566V13.6957H4.89131V11.7392ZM6.84784 11.7392H8.15219V13.6957H6.84784V11.7392ZM8.80436 11.7392H10.1087V13.6957H8.80436V11.7392Z" fill="#0070F0"/>
</svg>
