<svg width="16" height="16" viewBox="0 0 16 16" fill="none" xmlns="http://www.w3.org/2000/svg">
<path d="M12.8425 5.22328C12.9411 5.12459 12.9965 4.99075 12.9965 4.85119C12.9965 4.71163 12.9411 4.57779 12.8425 4.47909L11.5025 3.13913C11.4539 3.08887 11.3959 3.04877 11.3317 3.02119C11.2674 2.99361 11.1984 2.97909 11.1285 2.97848C11.0586 2.97787 10.9893 2.99119 10.9246 3.01765C10.86 3.04411 10.8012 3.08319 10.7518 3.13261C10.7024 3.18203 10.6633 3.24079 10.6368 3.30547C10.6104 3.37015 10.597 3.43945 10.5977 3.50933C10.5983 3.57922 10.6128 3.64828 10.6404 3.71249C10.6679 3.7767 10.708 3.83477 10.7583 3.88332L12.0983 5.22328C12.197 5.32195 12.3308 5.37738 12.4704 5.37738C12.6099 5.37738 12.7438 5.32195 12.8425 5.22328ZM5.69529 11.6242C5.74556 11.6727 5.78566 11.7308 5.81324 11.795C5.84082 11.8592 5.85534 11.9283 5.85595 11.9981C5.85655 12.068 5.84324 12.1373 5.81678 12.202C5.79031 12.2667 5.75123 12.3254 5.70182 12.3749C5.6524 12.4243 5.59364 12.4634 5.52896 12.4898C5.46428 12.5163 5.39498 12.5296 5.32509 12.529C5.25521 12.5284 5.18615 12.5139 5.12194 12.4863C5.05773 12.4587 4.99966 12.4186 4.95111 12.3683L3.6122 11.0294C3.51337 10.9307 3.4578 10.7968 3.4577 10.6572C3.4576 10.5175 3.51298 10.3835 3.61167 10.2847C3.71036 10.1859 3.84426 10.1303 3.98392 10.1302C4.12358 10.1301 4.25756 10.1855 4.35639 10.2842L5.69529 11.6242ZM15.5476 0.451843C15.2583 0.162529 14.8658 0 14.4566 0C14.0474 0 13.655 0.162529 13.3656 0.451843L12.713 1.10446L12.4551 0.847621C12.2517 0.6441 12.0057 0.488232 11.7348 0.39125C11.4639 0.294267 11.1749 0.258586 10.8886 0.286777C10.6022 0.314968 10.3257 0.406329 10.0789 0.554277C9.83217 0.702224 9.62129 0.903073 9.4615 1.14235C8.95647 1.03271 8.42952 1.08953 7.95949 1.30433C7.48945 1.51912 7.10159 1.88033 6.85394 2.33392C6.60629 2.7875 6.51216 3.30909 6.58564 3.82063C6.65912 4.33217 6.89625 4.80616 7.26157 5.17171L7.95418 5.86327L5.8816 7.93584L5.18899 7.24323C4.82345 6.87791 4.34945 6.64078 3.83791 6.5673C3.32637 6.49382 2.80479 6.58795 2.3512 6.8356C1.89761 7.08325 1.5364 7.47111 1.32161 7.94115C1.10682 8.41119 1.04999 8.93814 1.15964 9.44316C0.920827 9.60332 0.720427 9.81435 0.572817 10.0611C0.425206 10.3079 0.334044 10.5843 0.305871 10.8704C0.277697 11.1566 0.313212 11.4454 0.409866 11.7162C0.50652 11.987 0.661917 12.2331 0.864907 12.4368L1.12279 12.6946L0.452288 13.3652C0.162791 13.6545 9.87454e-05 14.047 4.49349e-08 14.4563C-9.86556e-05 14.8656 0.162405 15.2582 0.451762 15.5477C0.741118 15.8372 1.13363 15.9999 1.54294 16C1.95225 16.0001 2.34483 15.8376 2.63433 15.5482L3.30589 14.8767L3.56272 15.1335C3.76611 15.337 4.01211 15.4929 4.28299 15.5899C4.55388 15.6869 4.84291 15.7226 5.12925 15.6944C5.41559 15.6662 5.69211 15.5748 5.93888 15.4269C6.18565 15.2789 6.39653 15.0781 6.55632 14.8388C7.06135 14.9484 7.5883 14.8916 8.05834 14.6768C8.52838 14.462 8.91623 14.1008 9.16388 13.6472C9.41153 13.1936 9.50566 12.6721 9.43218 12.1605C9.3587 11.649 9.12157 11.175 8.75626 10.8094L8.06365 10.1179L10.1362 8.04636L10.8288 8.73792C11.1945 9.10274 11.6683 9.33945 12.1796 9.41265C12.6909 9.48586 13.2122 9.39164 13.6655 9.14408C14.1188 8.89651 14.4799 8.5089 14.6946 8.03916C14.9094 7.56943 14.9664 7.0428 14.8571 6.53798C15.0959 6.37782 15.2963 6.16679 15.444 5.92003C15.5916 5.67327 15.6827 5.39689 15.7109 5.11073C15.7391 4.82457 15.7036 4.53572 15.6069 4.26491C15.5103 3.9941 15.3549 3.74804 15.1519 3.54438L14.894 3.28755L15.5466 2.63494C15.69 2.49163 15.8038 2.32147 15.8814 2.13418C15.959 1.94688 15.999 1.74613 15.999 1.54339C15.999 1.34065 15.959 1.1399 15.8814 0.952604C15.8038 0.765311 15.69 0.595149 15.5466 0.451843H15.5476ZM14.1498 2.54336L13.4561 1.84864L14.1087 1.19603C14.2009 1.10391 14.3258 1.05215 14.4561 1.05215C14.5864 1.05215 14.7113 1.10391 14.8035 1.19603C14.8956 1.28816 14.9473 1.41311 14.9473 1.54339C14.9473 1.67367 14.8956 1.79862 14.8035 1.89075L14.1508 2.54336H14.1498ZM9.39203 7.30112L7.31946 9.37369L6.62579 8.68003L8.69837 6.60851L9.39203 7.30112ZM2.56065 14.1325L1.89014 14.803C1.79816 14.8951 1.67334 14.9469 1.54315 14.947C1.41297 14.9471 1.28808 14.8955 1.19595 14.8035C1.10383 14.7115 1.05201 14.5867 1.05192 14.4565C1.05182 14.3264 1.10344 14.2015 1.19542 14.1093L1.86804 13.4388L2.56065 14.1325ZM10.4488 1.59181C10.5317 1.50881 10.6302 1.44296 10.7386 1.39803C10.8469 1.3531 10.9631 1.32998 11.0804 1.32998C11.1977 1.32998 11.3139 1.3531 11.4222 1.39803C11.5306 1.44296 11.6291 1.50881 11.712 1.59181L14.4087 4.28857C14.517 4.39644 14.5957 4.53028 14.6374 4.67729C14.6791 4.8243 14.6824 4.97955 14.6469 5.12818C14.6114 5.2768 14.5383 5.41383 14.4347 5.52614C14.3311 5.63844 14.2004 5.72227 14.0551 5.76958C13.9846 5.79255 13.9197 5.83014 13.8648 5.8799C13.8098 5.92966 13.766 5.99047 13.7362 6.05835C13.7064 6.12622 13.6913 6.19963 13.6918 6.27376C13.6923 6.34789 13.7085 6.42107 13.7393 6.48851C13.8697 6.77411 13.8956 7.09642 13.8126 7.3992C13.7296 7.70199 13.543 7.96602 13.2852 8.14522C13.0274 8.32443 12.7149 8.40743 12.4022 8.37974C12.0894 8.35205 11.7964 8.21544 11.5741 7.99373L8.00575 4.42646C7.78405 4.20418 7.64743 3.9111 7.61974 3.59837C7.59206 3.28565 7.67506 2.97312 7.85426 2.71534C8.03347 2.45756 8.2975 2.27089 8.60028 2.1879C8.90307 2.10492 9.22538 2.13088 9.51097 2.26126C9.57847 2.29222 9.65175 2.30855 9.726 2.30917C9.80025 2.30979 9.87379 2.29469 9.94179 2.26487C10.0098 2.23504 10.0707 2.19116 10.1206 2.13612C10.1704 2.08107 10.208 2.01611 10.231 1.94548C10.2745 1.812 10.3492 1.69078 10.4488 1.59181ZM2.55117 7.98741C2.80245 7.73622 3.14321 7.5951 3.49852 7.5951C3.85382 7.5951 4.19458 7.73622 4.44586 7.98741L8.01312 11.5547C8.23483 11.777 8.37145 12.07 8.39913 12.3828C8.42682 12.6955 8.34382 13.008 8.16461 13.2658C7.98541 13.5236 7.72138 13.7103 7.41859 13.7932C7.11581 13.8762 6.7935 13.8503 6.5079 13.7199C6.44041 13.6889 6.36713 13.6726 6.29288 13.672C6.21863 13.6714 6.14508 13.6865 6.07708 13.7163C6.00908 13.7461 5.94816 13.79 5.89833 13.845C5.84849 13.9001 5.81086 13.965 5.78792 14.0357C5.74052 14.1808 5.65671 14.3113 5.54448 14.4147C5.43226 14.5182 5.29538 14.5912 5.14691 14.6266C4.99845 14.6621 4.84337 14.6589 4.6965 14.6174C4.54962 14.5758 4.41585 14.4973 4.30797 14.3893L1.6112 11.6926C1.50321 11.5847 1.4247 11.4509 1.38315 11.304C1.34161 11.1572 1.33842 11.0021 1.3739 10.8536C1.40938 10.7052 1.48233 10.5683 1.5858 10.4561C1.68926 10.3438 1.81978 10.26 1.96488 10.2126C2.0355 10.1897 2.10047 10.152 2.15551 10.1022C2.21056 10.0524 2.25443 9.99145 2.28426 9.92345C2.31408 9.85545 2.32918 9.78191 2.32856 9.70766C2.32794 9.63341 2.31161 9.56013 2.28066 9.49263C2.16683 9.2441 2.13173 8.96669 2.18009 8.69764C2.22844 8.42859 2.35793 8.18076 2.55117 7.98741Z" fill="#0070F0"/>
</svg>
