<svg width="18" height="12" viewBox="0 0 18 12" fill="none" xmlns="http://www.w3.org/2000/svg">
<path d="M17.2286 6.68571C17.6546 6.68571 18 6.34033 18 5.91429C18 5.48824 17.6546 5.14286 17.2286 5.14286V6.68571ZM0.771429 5.14286C0.345381 5.14286 4.90461e-07 5.48824 4.90461e-07 5.91429C4.90461e-07 6.34033 0.345381 6.68571 0.771429 6.68571V5.14286ZM4.34267 11.6051C4.64527 11.905 5.13371 11.9028 5.43363 11.6002C5.73354 11.2976 5.73136 10.8091 5.42876 10.5092L4.34267 11.6051ZM3.07237 9.25991L3.61542 8.712H3.61542L3.07237 9.25991ZM3.07237 2.56866L2.52933 2.02075H2.52933L3.07237 2.56866ZM5.42876 1.31934C5.73136 1.01942 5.73354 0.530988 5.43363 0.228385C5.13371 -0.0742174 4.64527 -0.0763966 4.34267 0.223518L5.42876 1.31934ZM0.791887 6.23657L0.0266491 6.33411L0.0266493 6.33411L0.791887 6.23657ZM0.791887 5.592L0.0266493 5.49446L0.0266493 5.49446L0.791887 5.592ZM17.2286 5.14286H0.771429V6.68571H17.2286V5.14286ZM5.42876 10.5092L3.61542 8.712L2.52933 9.80782L4.34267 11.6051L5.42876 10.5092ZM3.61542 3.11657L5.42876 1.31934L4.34267 0.223518L2.52933 2.02075L3.61542 3.11657ZM3.61542 8.712C2.87948 7.9826 2.37466 7.48062 2.03307 7.05527C1.70125 6.6421 1.58742 6.37671 1.55712 6.13903L0.0266493 6.33411C0.107686 6.96988 0.411045 7.49954 0.830115 8.02136C1.23941 8.53101 1.81916 9.10396 2.52933 9.80782L3.61542 8.712ZM2.52933 2.02075C1.81916 2.72461 1.23941 3.29757 0.830115 3.80722C0.411046 4.32904 0.107686 4.85869 0.0266493 5.49446L1.55712 5.68954C1.58742 5.45186 1.70125 5.18647 2.03307 4.7733C2.37466 4.34795 2.87948 3.84597 3.61542 3.11657L2.52933 2.02075ZM1.55712 6.13903C1.5381 5.98979 1.5381 5.83878 1.55712 5.68954L0.0266493 5.49446C-0.00888305 5.77323 -0.00888305 6.05534 0.0266491 6.33411L1.55712 6.13903Z" fill="#72777A"/>
</svg>
