<svg width="19" height="19" viewBox="0 0 19 19" fill="none" xmlns="http://www.w3.org/2000/svg">
<path d="M17.9106 13.676C17.5515 13.5085 17.1047 13.3 16.2856 13.3C15.4665 13.3 15.0196 13.5085 14.6606 13.676C14.3525 13.8198 14.1092 13.9333 13.5711 13.9333C13.033 13.9333 12.7898 13.8198 12.4818 13.676C12.1227 13.5085 11.6759 13.3 10.8568 13.3C10.0377 13.3 9.59088 13.5086 9.23186 13.676C8.92386 13.8198 8.68063 13.9333 8.14257 13.9333C7.60451 13.9333 7.36131 13.8198 7.05335 13.676C6.69433 13.5085 6.24752 13.3 5.42846 13.3C4.6094 13.3 4.16254 13.5086 3.80352 13.676C3.49552 13.8198 3.25229 13.9333 2.71423 13.9333C2.17617 13.9333 1.93293 13.8198 1.62494 13.676C1.26591 13.5086 0.819058 13.3 0 13.3V14.5667C0.538056 14.5667 0.781296 14.6802 1.08929 14.824C1.44831 14.9915 1.89517 15.2 2.71423 15.2C3.53329 15.2 3.98014 14.9914 4.33916 14.824C4.64716 14.6802 4.8904 14.5667 5.42846 14.5667C5.96651 14.5667 6.20971 14.6802 6.51767 14.824C6.87669 14.9915 7.32351 15.2 8.14257 15.2C8.96163 15.2 9.40848 14.9914 9.7675 14.824C10.0755 14.6802 10.3188 14.5667 10.8568 14.5667C11.3948 14.5667 11.6381 14.6802 11.9461 14.824C12.3052 14.9915 12.752 15.2 13.5711 15.2C14.3902 15.2 14.8371 14.9915 15.1962 14.824C15.5042 14.6802 15.7475 14.5667 16.2856 14.5667C16.8237 14.5667 17.067 14.6802 17.3749 14.824C17.734 14.9915 18.1809 15.2 19 15.2V13.9333C18.4619 13.9333 18.2186 13.8198 17.9106 13.676ZM16.2856 17.1C15.4665 17.1 15.0196 17.3085 14.6606 17.476C14.3525 17.6198 14.1092 17.7333 13.5711 17.7333C13.033 17.7333 12.7898 17.6198 12.4818 17.476C12.1227 17.3085 11.6759 17.1 10.8568 17.1C10.0377 17.1 9.59088 17.3086 9.23186 17.476C8.92386 17.6198 8.68063 17.7333 8.14257 17.7333C7.60451 17.7333 7.36131 17.6198 7.05335 17.476C6.69433 17.3085 6.24752 17.1 5.42846 17.1C4.6094 17.1 4.16254 17.3086 3.80352 17.476C3.49552 17.6198 3.25229 17.7333 2.71423 17.7333C2.17617 17.7333 1.93293 17.6198 1.62494 17.476C1.26591 17.3086 0.819058 17.1 0 17.1V18.3667C0.538056 18.3667 0.781296 18.4802 1.08929 18.624C1.44831 18.7915 1.89517 19 2.71423 19C3.53329 19 3.98014 18.7914 4.33916 18.624C4.64716 18.4802 4.8904 18.3667 5.42846 18.3667C5.96651 18.3667 6.20971 18.4802 6.51767 18.624C6.87669 18.7915 7.32351 19 8.14257 19C8.96163 19 9.40848 18.7914 9.7675 18.624C10.0755 18.4802 10.3188 18.3667 10.8568 18.3667C11.3948 18.3667 11.6381 18.4802 11.9461 18.624C12.3052 18.7915 12.752 19 13.5711 19C14.3902 19 14.8371 18.7915 15.1962 18.624C15.5042 18.4802 15.7475 18.3667 16.2856 18.3667C16.8237 18.3667 17.067 18.4802 17.3749 18.624C17.734 18.7915 18.1809 19 19 19V17.7333C18.4619 17.7333 18.2186 17.6198 17.9106 17.476C17.5515 17.3085 17.1047 17.1 16.2856 17.1ZM9.18333 10.1333H14.8833V12.35H16.15V3.9535C16.1495 3.56908 16.2661 3.19362 16.4843 2.87711L18.4623 0H16.9252L15.4405 2.15951C15.0769 2.68702 14.8825 3.31279 14.8833 3.9535V5.7H9.18333V3.9535C9.18284 3.56908 9.29945 3.19362 9.51765 2.87711L11.4957 0H9.95849L8.47384 2.15951C8.11019 2.68702 7.91584 3.31279 7.91667 3.9535V12.35H9.18333V10.1333ZM9.18333 6.96667H14.8833V8.86667H9.18333V6.96667Z" fill="#0070F0"/>
</svg>
