<svg width="19" height="18" viewBox="0 0 19 18" fill="none" xmlns="http://www.w3.org/2000/svg">
<path d="M14.5266 7.97881C14.3977 6.56419 13.9679 5.19345 13.2661 3.95842C12.5643 2.7234 11.6067 1.65261 10.4574 0.817792L9.32809 0L8.26983 0.822938C7.16724 1.68015 6.25789 2.76033 5.60119 3.99292C4.94449 5.2255 4.55522 6.58276 4.45879 7.97604C4.03277 7.89575 3.60019 7.85534 3.16667 7.85535H0V10.45C0 14.2914 3.12522 17.4167 6.96667 17.4167H12.0333C15.8748 17.4167 19 14.2914 19 10.45V7.85535H15.8333C15.3948 7.85533 14.9573 7.89667 14.5266 7.97881ZM9.04748 1.82281L9.35524 1.58333L9.71466 1.84359C10.7511 2.59652 11.6085 3.56912 12.2255 4.69186C12.8424 5.81461 13.2038 7.05979 13.2836 8.33839C11.6087 9.00194 10.2537 10.2851 9.5 11.9214C8.74473 10.282 7.38601 8.99739 5.70697 8.3351C5.7512 7.07087 6.07346 5.83191 6.65083 4.70635C7.22819 3.58078 8.04648 2.59626 9.04748 1.82281ZM8.86667 16.15H6.96667C3.82375 16.15 1.26667 13.5929 1.26667 10.45V9.12202H3.16667C6.30958 9.12202 8.86667 11.6791 8.86667 14.822V16.15ZM17.7333 10.45C17.7333 13.5929 15.1763 16.15 12.0333 16.15H10.1333V14.822C10.1333 11.6791 12.6904 9.12202 15.8333 9.12202H17.7333V10.45Z" fill="#0070F0"/>
</svg>
